<?xml version="1.0" standalone="no"?><!DOCTYPE svg PUBLIC "-//W3C//DTD SVG 1.1//EN" "http://www.w3.org/Graphics/SVG/1.1/DTD/svg11.dtd"><svg t="1707291423395" class="icon" viewBox="0 0 1024 1024" version="1.1" xmlns="http://www.w3.org/2000/svg" p-id="5225" xmlns:xlink="http://www.w3.org/1999/xlink" width="200" height="200"><path d="M814.933333 896h76.8a4.266667 4.266667 0 0 0 4.266667-4.266667v-76.8a4.266667 4.266667 0 0 0-4.266667-4.266666h-76.8a4.266667 4.266667 0 0 0-4.266666 4.266666v76.8a4.266667 4.266667 0 0 0 4.266666 4.266667z m0-170.666667h76.8a4.266667 4.266667 0 0 0 4.266667-4.266666v-76.8a4.266667 4.266667 0 0 0-4.266667-4.266667h-76.8a4.266667 4.266667 0 0 0-4.266666 4.266667v76.8a4.266667 4.266667 0 0 0 4.266666 4.266666z m0-341.333333h76.8a4.266667 4.266667 0 0 0 4.266667-4.266667V302.933333a4.266667 4.266667 0 0 0-4.266667-4.266666h-76.8a4.266667 4.266667 0 0 0-4.266666 4.266666v76.8a4.266667 4.266667 0 0 0 4.266666 4.266667zM128 132.266667v76.8a4.266667 4.266667 0 0 0 4.266667 4.266666h759.466666a4.266667 4.266667 0 0 0 4.266667-4.266666V132.266667a4.266667 4.266667 0 0 0-4.266667-4.266667H132.266667a4.266667 4.266667 0 0 0-4.266667 4.266667zM644.266667 896h76.8a4.266667 4.266667 0 0 0 4.266666-4.266667v-76.8a4.266667 4.266667 0 0 0-4.266666-4.266666h-76.8a4.266667 4.266667 0 0 0-4.266667 4.266666v76.8a4.266667 4.266667 0 0 0 4.266667 4.266667z m-170.666667 0h76.8a4.266667 4.266667 0 0 0 4.266667-4.266667v-76.8a4.266667 4.266667 0 0 0-4.266667-4.266666h-76.8a4.266667 4.266667 0 0 0-4.266667 4.266666v76.8a4.266667 4.266667 0 0 0 4.266667 4.266667z m0-170.666667h76.8a4.266667 4.266667 0 0 0 4.266667-4.266666v-76.8a4.266667 4.266667 0 0 0-4.266667-4.266667h-76.8a4.266667 4.266667 0 0 0-4.266667 4.266667v76.8a4.266667 4.266667 0 0 0 4.266667 4.266666z m0-341.333333h76.8a4.266667 4.266667 0 0 0 4.266667-4.266667V302.933333a4.266667 4.266667 0 0 0-4.266667-4.266666h-76.8a4.266667 4.266667 0 0 0-4.266667 4.266666v76.8a4.266667 4.266667 0 0 0 4.266667 4.266667z m-341.333333 0h76.8a4.266667 4.266667 0 0 0 4.266666-4.266667V302.933333a4.266667 4.266667 0 0 0-4.266666-4.266666H132.266667a4.266667 4.266667 0 0 0-4.266667 4.266666v76.8a4.266667 4.266667 0 0 0 4.266667 4.266667z m341.333333 170.666667h76.8a4.266667 4.266667 0 0 0 4.266667-4.266667v-76.8a4.266667 4.266667 0 0 0-4.266667-4.266667h-76.8a4.266667 4.266667 0 0 0-4.266667 4.266667v76.8a4.266667 4.266667 0 0 0 4.266667 4.266667z m-170.666667 341.333333h76.8a4.266667 4.266667 0 0 0 4.266667-4.266667v-76.8a4.266667 4.266667 0 0 0-4.266667-4.266666H302.933333a4.266667 4.266667 0 0 0-4.266666 4.266666v76.8a4.266667 4.266667 0 0 0 4.266666 4.266667z m-170.666666 0h76.8a4.266667 4.266667 0 0 0 4.266666-4.266667v-76.8a4.266667 4.266667 0 0 0-4.266666-4.266666H132.266667a4.266667 4.266667 0 0 0-4.266667 4.266666v76.8a4.266667 4.266667 0 0 0 4.266667 4.266667z m0-170.666667h76.8a4.266667 4.266667 0 0 0 4.266666-4.266666v-76.8a4.266667 4.266667 0 0 0-4.266666-4.266667H132.266667a4.266667 4.266667 0 0 0-4.266667 4.266667v76.8a4.266667 4.266667 0 0 0 4.266667 4.266666z m682.666666-170.666666h76.8a4.266667 4.266667 0 0 0 4.266667-4.266667v-76.8a4.266667 4.266667 0 0 0-4.266667-4.266667h-76.8a4.266667 4.266667 0 0 0-4.266666 4.266667v76.8a4.266667 4.266667 0 0 0 4.266666 4.266667z m-170.666666 0h76.8a4.266667 4.266667 0 0 0 4.266666-4.266667v-76.8a4.266667 4.266667 0 0 0-4.266666-4.266667h-76.8a4.266667 4.266667 0 0 0-4.266667 4.266667v76.8a4.266667 4.266667 0 0 0 4.266667 4.266667z m-341.333334 0h76.8a4.266667 4.266667 0 0 0 4.266667-4.266667v-76.8a4.266667 4.266667 0 0 0-4.266667-4.266667H302.933333a4.266667 4.266667 0 0 0-4.266666 4.266667v76.8a4.266667 4.266667 0 0 0 4.266666 4.266667z m-170.666666 0h76.8a4.266667 4.266667 0 0 0 4.266666-4.266667v-76.8a4.266667 4.266667 0 0 0-4.266666-4.266667H132.266667a4.266667 4.266667 0 0 0-4.266667 4.266667v76.8a4.266667 4.266667 0 0 0 4.266667 4.266667z" p-id="5226"></path></svg>